# xmcd
#
# Track frame offsets:
#	150
#	31604
#	62574
#	84749
#	118958
#	147523
#	166449
#	204082
#	227908
#	247462
#	265462
#	296788
#	322272
#
# Disc length: 4742 seconds
#
# Revision: 2
# Processed by: cddbd v1.5.2PL0 Copyright (c) Steve Scherf et al.
# Submitted via: EasyCDDAExtractor 15.2.1.1
#
DISCID=cf12840d
DTITLE=Bethel - For the Sake of the World
DYEAR=2012
DGENRE=Religious
TTITLE0=To Our God
TTITLE1=Our Father
TTITLE2=Everything to You (Spontaneous)
TTITLE3=This Is Amazing Grace
TTITLE4=You Have Won Me
TTITLE5=I Really Love You (Spontaneous)
TTITLE6=Who You Are
TTITLE7=Forgiven
TTITLE8=In Your Light
TTITLE9=Freedom
TTITLE10=Closer
TTITLE11=This Is What You Do
TTITLE12=For the Sake of the World
EXTD=
EXTT0=
EXTT1=
EXTT2=
EXTT3=
EXTT4=
EXTT5=
EXTT6=
EXTT7=
EXTT8=
EXTT9=
EXTT10=
EXTT11=
EXTT12=
PLAYORDER=
